<?xml version="1.0" encoding="utf-8"?>
<!-- Generator: Adobe Illustrator 17.0.0, SVG Export Plug-In . SVG Version: 6.00 Build 0)  -->
<!DOCTYPE svg PUBLIC "-//W3C//DTD SVG 1.1//EN" "http://www.w3.org/Graphics/SVG/1.1/DTD/svg11.dtd">
<svg version="1.1" id="Layer_1" xmlns="http://www.w3.org/2000/svg" xmlns:xlink="http://www.w3.org/1999/xlink" x="0px" y="0px"
	 width="226.214px" height="152.333px" viewBox="0 0 226.214 152.333" enable-background="new 0 0 226.214 152.333"
	 xml:space="preserve">
<g>
	<g>
		<path fill="#EF3829" d="M160.995,29.313l-17.64,5.732c-0.328,0.107-0.645,0.157-0.944,0.157c-1.312,0-2.273-0.979-2.273-2.494
			V14.157c0-1.816,0.382-3.254,0.854-3.254c0.012,0,0.023,0.001,0.035,0.003c0,0,0,0,0.44,0.079c4.641,0.833,9.025,2.7,12.896,5.518
			c3.789,2.757,6.933,6.363,9.17,10.453c0.236,0.433,0.236,0.433,0.236,0.433C164.013,27.872,162.764,28.738,160.995,29.313z"/>
		<path fill="#EF3829" d="M129.258,35.202c-0.299,0-0.615-0.051-0.943-0.157l-17.641-5.731c-1.769-0.575-3.05-1.378-2.846-1.785
			c0,0,0,0,0.196-0.365c2.243-4.176,5.429-7.856,9.281-10.66c3.813-2.775,8.123-4.628,12.688-5.479
			c0.51-0.095,0.51-0.095,0.51-0.095c0.016-0.002,0.031-0.003,0.046-0.003c0.544,0,0.982,1.424,0.982,3.232v18.551
			C131.531,34.223,130.571,35.202,129.258,35.202z"/>
		<path fill="#696B73" d="M94.316,42.013c0,4.383,0.68,8.701,2.022,12.831c1.353,4.167,3.352,8.08,5.945,11.63
			c2.558,3.503,5.634,6.574,9.143,9.128c7.128,5.188,15.568,7.929,24.409,7.929c8.84,0,17.281-2.743,24.412-7.932
			c3.507-2.553,6.582-5.624,9.141-9.128c2.592-3.55,4.592-7.462,5.944-11.626c1.342-4.133,2.023-8.451,2.023-12.833
			c0-4.382-0.681-8.699-2.023-12.831c-1.352-4.167-3.352-8.08-5.944-11.63c-2.559-3.503-5.635-6.575-9.144-9.128
			c-7.128-5.187-15.568-7.93-24.409-7.93c-8.841,0-17.282,2.742-24.409,7.93c-3.508,2.554-6.585,5.625-9.143,9.128
			c-2.593,3.55-4.592,7.463-5.944,11.628C94.997,33.313,94.316,37.631,94.316,42.013z M100.004,42.013
			c0-3.864,0.611-7.587,1.745-11.075c2.358-7.266,6.975-13.513,13.024-17.916c5.912-4.302,13.19-6.84,21.062-6.84
			c7.872,0,15.15,2.538,21.062,6.84c6.049,4.402,10.667,10.649,13.025,17.916c1.132,3.488,1.745,7.211,1.745,11.075
			c0,3.865-0.612,7.587-1.745,11.076c-2.358,7.265-6.976,13.512-13.023,17.914c-5.912,4.302-13.191,6.842-21.064,6.842
			c-7.872,0-15.15-2.539-21.062-6.841c-6.049-4.403-10.666-10.649-13.024-17.915C100.615,49.601,100.004,45.878,100.004,42.013z"/>
		<path fill="#EF3829" d="M146.017,43.231l17.641-5.733c0.732-0.237,1.427-0.353,1.997-0.353c0.808,0,1.368,0.23,1.438,0.669
			c0,0,0,0,0.076,0.687c0.129,1.161,0.193,2.333,0.193,3.511c0,3.333-0.516,6.612-1.535,9.746
			c-1.414,4.356-3.813,8.391-6.945,11.755c-0.392,0.421-0.392,0.421-0.392,0.421c-0.08,0.079-0.185,0.117-0.312,0.117
			c-0.582,0-1.595-0.806-2.494-2.043l-10.897-14.998C143.695,45.507,144.248,43.806,146.017,43.231z"/>
		<path fill="#EF3829" d="M133.848,52.071c0.547-0.753,1.267-1.128,1.988-1.128c0.72,0,1.441,0.376,1.987,1.128l10.907,15.011
			c1.093,1.504,1.656,2.91,1.25,3.123c0,0,0,0-0.374,0.182c-4.259,2.075-8.936,3.154-13.771,3.154c-4.841,0-9.523-1.081-13.785-3.16
			c-0.369-0.18-0.369-0.18-0.369-0.18c-0.399-0.21,0.167-1.613,1.261-3.118L133.848,52.071z"/>
		<path fill="#EF3829" d="M104.67,37.2c0.027-0.16,0.273-0.237,0.67-0.237c0.616,0,1.595,0.187,2.672,0.536l17.643,5.733
			c1.77,0.575,2.322,2.276,1.229,3.781l-10.897,15c-0.944,1.298-1.95,2.185-2.431,2.185c-0.076,0-0.139-0.022-0.187-0.069
			c0,0,0,0-0.305-0.319c-3.268-3.422-5.766-7.566-7.222-12.051c-1.018-3.133-1.534-6.412-1.534-9.745
			c0-1.493,0.103-2.976,0.309-4.438C104.67,37.2,104.67,37.2,104.67,37.2z"/>
	</g>
	<path fill="#EF3829" d="M50.296,44.969c0,0-2.884,6.746-10.325,5.142c-7.441-1.6-14.366-1.668-17.061,5.325
		c0.125-0.061,5.814-2.798,15.457-0.577c9.749,2.245,18.6-1.86,21.488-3.786c2.884-1.922,8.786-5.58,15.908-2.309
		c0,0-15.843-0.125-19.115,10.136c0,0,8.722-5.261,15.779,1.475c0,0-2.695,3.207-13.149,0.962
		c-10.457-2.244-15.396,3.464-15.01,9.814c0,0,5.58-5.132,13.854-1.604s14.816,2.373,14.816,2.373s7.186-1.346,9.495,0.837
		c0,0-20.976,3.014-8.468,16.227c0,0,0.383-8.274,11.095-6.414c7.988,1.388,23.89,5.837,34.066,2.003
		c-3.58-1.404-6.993-3.274-10.167-5.586c-3.86-2.811-7.244-6.191-10.058-10.045c-2.855-3.909-5.058-8.22-6.545-12.804
		c-1.478-4.553-2.228-9.302-2.228-14.125c0-4.823,0.75-9.575,2.228-14.125c1.49-4.588,3.693-8.896,6.545-12.804
		c2.814-3.857,6.198-7.235,10.058-10.046c1.755-1.277,3.583-2.42,5.474-3.425c-5.244-2.009-12.672-2.862-21.353,1.803
		c-17.318,9.302-23.541-0.962-23.541-0.962s-0.319,6.159,6.864,9.813c7.183,3.657,13.663-0.384,13.663-0.384
		s5.706-3.464,8.078-0.386c0,0-9.298,8.339-18.342,4.814c-9.044-3.529-10.264-2.695-15.715-1.156
		c-5.454,1.539-8.661-1.797-8.661-1.797s-0.769,8.722,9.237,7.892c5.837-0.899,5.708,2.372,5.708,2.372s-2.438,1.987-11.095-0.644
		c-8.661-2.627-11.674-0.318-15.525,1.99c-3.847,2.308-9.681,3.464-13.081,1.478c0.074,0.225,3.278,9.362,14.62,4.041
		c9.559-4.172,11.61,0.895,11.61,0.895s-7.618,8.769-24.842,3.819c-17.225-4.95-24.952,4.783-25.113,9.291
		c0,0,9.981-7.318,17.708-4.259C32.383,43.292,37.785,49.061,50.296,44.969z"/>
	<linearGradient id="SVGID_1_" gradientUnits="userSpaceOnUse" x1="151.9543" y1="38.3675" x2="151.9543" y2="15.1883">
		<stop  offset="0" style="stop-color:#F69382"/>
		<stop  offset="1" style="stop-color:#EF3829"/>
	</linearGradient>
	<path fill="url(#SVGID_1_)" d="M142.412,34.655c-1.048,0-1.725-0.764-1.725-1.947V14.157c0-1.455,0.247-2.387,0.417-2.682
		l0.269,0.048c4.599,0.826,8.862,2.65,12.67,5.421c3.688,2.685,6.804,6.237,9.011,10.274l0.168,0.308
		c-0.193,0.256-0.985,0.807-2.396,1.266l-17.64,5.732C142.919,34.611,142.659,34.655,142.412,34.655z"/>
	<linearGradient id="SVGID_2_" gradientUnits="userSpaceOnUse" x1="119.6958" y1="39.3574" x2="119.6958" y2="16.1909">
		<stop  offset="0" style="stop-color:#F69382"/>
		<stop  offset="1" style="stop-color:#EF3829"/>
	</linearGradient>
	<path fill="url(#SVGID_2_)" d="M129.258,34.655c-0.247,0-0.508-0.044-0.775-0.131l-17.64-5.731
		c-1.358-0.441-2.179-0.939-2.435-1.188l0.098-0.182c2.214-4.123,5.368-7.745,9.121-10.477c3.75-2.728,7.944-4.54,12.465-5.384
		l0.394-0.073c0.19,0.239,0.497,1.179,0.497,2.669v18.551C130.983,33.891,130.306,34.655,129.258,34.655z"/>
	<linearGradient id="SVGID_3_" gradientUnits="userSpaceOnUse" x1="135.8347" y1="1.0419" x2="135.8347" y2="82.9848">
		<stop  offset="0" style="stop-color:#696B73"/>
		<stop  offset="1" style="stop-color:#AEB3B8"/>
	</linearGradient>
	<path fill="url(#SVGID_3_)" d="M101.228,53.258c-1.175-3.619-1.771-7.402-1.771-11.245c0-3.842,0.596-7.625,1.771-11.244
		c2.347-7.231,7.043-13.691,13.223-18.189c6.243-4.544,13.637-6.945,21.384-6.945c7.747,0,15.141,2.401,21.384,6.945
		c6.18,4.498,10.876,10.957,13.223,18.189c1.176,3.62,1.772,7.403,1.772,11.244c0,2.227-0.207,4.431-0.604,6.598
		c1.648-0.668,3.299-1.384,4.951-2.143c0.16-1.474,0.245-2.96,0.245-4.455c0-4.325-0.671-8.585-1.996-12.662
		c-1.333-4.11-3.308-7.972-5.866-11.476c-2.525-3.458-5.561-6.489-9.023-9.009c-7.034-5.119-15.363-7.825-24.087-7.825
		c-8.725,0-17.054,2.706-24.087,7.825c-3.462,2.521-6.498,5.551-9.022,9.009c-2.558,3.503-4.531,7.364-5.866,11.475
		c-1.325,4.078-1.996,8.339-1.996,12.663c0,3.406,0.423,6.77,1.246,10.038c1.704,0.467,3.421,0.907,5.154,1.313
		C101.252,53.329,101.239,53.294,101.228,53.258z"/>
	<linearGradient id="SVGID_4_" gradientUnits="userSpaceOnUse" x1="155.7944" y1="63.5026" x2="155.7944" y2="37.6933">
		<stop  offset="0" style="stop-color:#F69382"/>
		<stop  offset="1" style="stop-color:#EF3829"/>
	</linearGradient>
	<path fill="url(#SVGID_4_)" d="M166.815,42.013c0-1.153-0.064-2.314-0.19-3.451l-0.073-0.661c-0.016-0.034-0.237-0.208-0.897-0.208
		c-0.532,0-1.181,0.116-1.828,0.326l-17.641,5.732c-0.685,0.222-1.16,0.645-1.336,1.19c-0.178,0.545-0.042,1.166,0.381,1.748
		l5.835,8.03c4.787-0.932,9.611-2.203,14.46-3.851C166.378,48.009,166.815,45.035,166.815,42.013z"/>
	<linearGradient id="SVGID_5_" gradientUnits="userSpaceOnUse" x1="135.6646" y1="70.6826" x2="135.6646" y2="49.1797">
		<stop  offset="0" style="stop-color:#F69382"/>
		<stop  offset="1" style="stop-color:#EF3829"/>
	</linearGradient>
	<path fill="url(#SVGID_5_)" d="M137.381,52.392c-0.424-0.582-0.972-0.902-1.545-0.902c-0.573,0-1.122,0.32-1.545,0.902
		l-3.165,4.357c3.003-0.036,6.031-0.188,9.078-0.472L137.381,52.392z"/>
	<linearGradient id="SVGID_6_" gradientUnits="userSpaceOnUse" x1="115.8764" y1="63.6186" x2="115.8764" y2="37.5097">
		<stop  offset="0" style="stop-color:#F69382"/>
		<stop  offset="1" style="stop-color:#EF3829"/>
	</linearGradient>
	<path fill="url(#SVGID_6_)" d="M126.441,46.69c0.422-0.582,0.558-1.203,0.381-1.748c-0.177-0.545-0.652-0.968-1.336-1.19
		l-17.643-5.732c-0.982-0.319-1.918-0.51-2.502-0.51c-0.066,0-0.12,0.003-0.162,0.006l-0.019,0.135
		c-0.202,1.433-0.304,2.901-0.304,4.362c0,3.276,0.507,6.499,1.507,9.577c0.34,1.048,0.742,2.081,1.198,3.091
		c3.904,0.721,7.872,1.273,11.895,1.626L126.441,46.69z"/>
	<linearGradient id="SVGID_7_" gradientUnits="userSpaceOnUse" x1="77.6489" y1="87.7895" x2="77.6489" y2="0.5471">
		<stop  offset="0" style="stop-color:#F69382"/>
		<stop  offset="1" style="stop-color:#EF3829"/>
	</linearGradient>
	<path fill="url(#SVGID_7_)" d="M91.837,27.721c1.509-4.643,3.737-9.002,6.624-12.958c2.844-3.898,6.269-7.318,10.178-10.165
		c1.429-1.041,2.926-2.005,4.463-2.876c-2.378-0.78-4.82-1.174-7.275-1.174c-4.146,0-8.347,1.128-12.485,3.352
		c-4.896,2.629-9.394,3.963-13.371,3.963c-0.001,0-0.001,0-0.002,0c-5.078,0-8.142-2.137-9.676-3.653
		c0.452,1.994,1.879,5.291,6.361,7.57c1.919,0.977,3.966,1.472,6.086,1.472c4.039,0,7.011-1.814,7.045-1.835
		c0.118-0.071,2.896-1.74,5.49-1.74c1.433,0,2.545,0.5,3.306,1.488c0.175,0.227,0.145,0.55-0.068,0.742
		c-0.265,0.237-6.577,5.822-14,5.822c-1.712,0-3.362-0.305-4.906-0.906c-4.505-1.758-7.087-2.443-9.209-2.443
		c-1.642,0-3.063,0.411-5.03,0.98c-0.357,0.103-0.732,0.211-1.129,0.324c-1.002,0.283-2.002,0.426-2.972,0.426
		c-2.457,0-4.251-0.899-5.267-1.59c0.101,1.109,0.466,2.833,1.697,4.173c1.261,1.372,3.169,2.067,5.671,2.067
		c0.396,0,0.811-0.018,1.235-0.052c0.693-0.106,1.342-0.16,1.928-0.16c1.623,0,2.834,0.403,3.599,1.198
		c0.824,0.858,0.794,1.858,0.793,1.899c-0.006,0.157-0.08,0.304-0.202,0.403c-0.105,0.087-1.111,0.842-3.816,0.842
		c-2.135,0-4.754-0.467-7.783-1.386c-2.539-0.771-4.686-1.145-6.566-1.145c-3.442,0-5.49,1.243-7.861,2.682
		c-0.217,0.132-0.436,0.264-0.657,0.397c-0.585,0.351-1.203,0.668-1.841,0.955c1.456,0.985,2.95,1.972,4.48,2.956
		c1.929-0.698,3.675-1.057,5.2-1.057c4.318,0,5.487,2.767,5.535,2.885c0.077,0.191,0.04,0.409-0.094,0.564
		c-0.086,0.099-1.036,1.165-2.941,2.335c10.698,6.26,22.831,12.084,35.965,16.265c-0.499-2.737-0.759-5.521-0.759-8.327
		C89.583,37.136,90.341,32.327,91.837,27.721z"/>
</g>
<g>
	<g>
		<path fill="#696B73" d="M4.462,139.302V96.758h16.661c14.082,0,21.123,6.704,21.123,20.111c0,14.955-7.041,22.433-21.123,22.433
			H4.462z M21.123,132.459c8.826,0,13.239-5.196,13.239-15.59c0-8.846-4.414-13.269-13.239-13.269h-8.776v28.858H21.123z"/>
		<path fill="#696B73" d="M46.673,139.302v-31.238h6.099l0.982,3.986c2.737-2.657,5.633-3.986,8.687-3.986v6.366
			c-2.936,0-5.563,1.22-7.884,3.66v21.212H46.673z"/>
		<path fill="#696B73" d="M63.893,129.574c0-6.208,4.522-9.312,13.566-9.312c2.122,0,4.244,0.199,6.367,0.596v-2.351
			c0-2.797-2.013-4.195-6.04-4.195c-3.412,0-7.2,0.496-11.365,1.488v-6.248c4.165-0.991,7.953-1.487,11.365-1.487
			c9.282,0,13.923,3.432,13.923,10.294v20.944h-4.582l-2.796-2.797c-2.718,1.865-5.712,2.797-8.985,2.797
			C67.711,139.302,63.893,136.059,63.893,129.574z M77.459,125.617c-3.789,0-5.683,1.29-5.683,3.868c0,2.776,1.586,4.165,4.76,4.165
			c2.618,0,5.047-0.813,7.289-2.439v-4.999C81.842,125.815,79.72,125.617,77.459,125.617z"/>
		<path fill="#696B73" d="M125.501,136.922c0,9.123-5.484,13.686-16.452,13.686c-3.848,0-7.259-0.496-10.234-1.488v-6.247
			c3.035,0.991,6.466,1.487,10.294,1.487c5.672,0,8.509-2.38,8.509-7.141c-2.341,0.992-4.86,1.488-7.557,1.488
			c-9.282,0-13.923-5.067-13.923-15.203c0-10.294,5.404-15.44,16.214-15.44c3.629,0,8.013,0.427,13.15,1.279V136.922z
			 M117.617,115.145c-1.29-0.477-3.124-0.715-5.504-0.715c-5.455,0-8.182,3.005-8.182,9.015c0,5.812,2.351,8.717,7.051,8.717
			c2.261,0,4.473-0.535,6.635-1.606V115.145z"/>
		<path fill="#696B73" d="M131.416,137.815v-6.546c3.47,1.389,7.477,2.083,12.019,2.083c3.392,0,5.088-1.091,5.088-3.272
			c0-2.083-1.141-3.124-3.422-3.124h-5.652c-6.347,0-9.521-3.124-9.521-9.371c0-6.546,4.631-9.818,13.894-9.818
			c3.928,0,7.626,0.596,11.098,1.785v6.545c-3.472-1.388-7.24-2.082-11.306-2.082c-4.265,0-6.396,1.091-6.396,3.272
			c0,2.083,1.239,3.124,3.719,3.124h5.058c6.942,0,10.413,3.124,10.413,9.371c0,6.546-4.423,9.818-13.269,9.818
			C138.794,139.6,134.886,139.004,131.416,137.815z"/>
		<path fill="#696B73" d="M159.94,103.006h5.831l1.19,5.058h7.854v6.247h-6.992v14.37c0,2.916,1.26,4.373,3.779,4.373h3.213v6.248
			h-7.021c-5.236,0-7.854-2.807-7.854-8.42V103.006z"/>
		<path fill="#696B73" d="M191.828,108.064c9.479,0,14.221,4.84,14.221,14.519c0,1.289-0.09,2.578-0.268,3.867h-20.736
			c0,4.403,3.232,6.604,9.698,6.604c3.153,0,6.308-0.297,9.461-0.893v6.248c-2.757,0.595-6.109,0.893-10.056,0.893
			c-11.325,0-16.988-5.325-16.988-15.977C177.16,113.151,182.05,108.064,191.828,108.064z M185.045,120.976h13.328v-0.238
			c0-4.324-2.183-6.485-6.545-6.485C187.662,114.252,185.401,116.494,185.045,120.976z"/>
		<path fill="#696B73" d="M210.445,139.302v-31.238h6.1l0.981,3.986c2.737-2.657,5.633-3.986,8.688-3.986v6.366
			c-2.936,0-5.563,1.22-7.884,3.66v21.212H210.445z"/>
	</g>
</g>
</svg>
